# xmcd CD database file
#
# Track frame offsets:
#	150
#	12319
#	18660
#	32369
#	39814
#	53559
#	66714
#	83295
#	100586
#	111240
#	118620
#	125634
#	135514
#	146416
#	160920
#	173083
#	180772
#	212885
#	224188
#
# Disc length: 3354 seconds
#
# Revision: 1
# Processed by: cddbd v1.5.2PL0 Copyright (c) Steve Scherf et al.
# Submitted via: CDex 1.70beta2
#
DISCID=fe0d1813
DTITLE=Johnny Cash - Johnny Cash At Folsom Prison
DYEAR=1968
DGENRE=Country
TTITLE0=Fosom Prison Blues
TTITLE1=Busted
TTITLE2=Dark As The Dungeon
TTITLE3=I Still Miss Someone
TTITLE4=Cocaine Blues
TTITLE5=25 Minutes To Go
TTITLE6=Orange Blossom Special
TTITLE7=The Long Black Veil
TTITLE8=Send A Picture Of Mother
TTITLE9=The Wall
TTITLE10=Dirty Old Egg-Sucking Dog
TTITLE11=Flushed From The Bathroom Of Your Heart
TTITLE12=Joe Bean
TTITLE13=Jackson
TTITLE14=Give My Love To Rose
TTITLE15=I Got Stripes
TTITLE16=Legend Of John Henry's Hammer, The - (Bonus Track, Previously Unreleased)
TTITLE17=Green, Green Grass Of Home
TTITLE18=Greystone Chapel
EXTD=YEAR: 1968
EXTT0=
EXTT1=
EXTT2=
EXTT3=
EXTT4=
EXTT5=
EXTT6=
EXTT7=
EXTT8=
EXTT9=
EXTT10=
EXTT11=
EXTT12=
EXTT13=
EXTT14=
EXTT15=
EXTT16=
EXTT17=
EXTT18=
PLAYORDER=
